<?xml version="1.0" standalone="no"?>
<!DOCTYPE svg PUBLIC "-//W3C//DTD SVG 20010904//EN"
 "http://www.w3.org/TR/2001/REC-SVG-20010904/DTD/svg10.dtd">
<svg version="1.0" xmlns="http://www.w3.org/2000/svg"
 width="256.000000pt" height="256.000000pt" viewBox="0 0 256.000000 256.000000"
 preserveAspectRatio="xMidYMid meet">
<metadata>
Created by potrace 1.14, written by Peter Selinger 2001-2017
</metadata>
<g transform="translate(0.000000,256.000000) scale(0.100000,-0.100000)"
fill="#000000" stroke="none">
<path d="M400 1280 l0 -880 880 0 880 0 0 880 0 880 -880 0 -880 0 0 -880z
m1600 0 l0 -720 -720 0 -720 0 0 720 0 720 720 0 720 0 0 -720z"/>
<path d="M946 1633 c15 -26 31 -49 36 -51 4 -2 8 -8 8 -14 0 -6 20 -44 45 -84
24 -41 41 -74 37 -74 -4 0 1 -5 11 -11 9 -5 17 -15 17 -20 0 -6 22 -48 50 -95
l50 -85 0 -199 0 -200 80 0 80 0 0 201 0 200 71 122 c145 247 183 313 197 335
l14 22 -81 0 -80 0 -75 -127 c-136 -233 -128 -221 -137 -198 -5 11 -48 88 -97
170 l-88 150 -82 3 -82 3 26 -48z"/>
</g>
</svg>
